<?xml version="1.0" encoding="UTF-8" ?>
<svg version="1.1" width="20" height="20" xmlns="http://www.w3.org/2000/svg" shape-rendering="crispEdges">
<rect x="3" y="0" width="5" height="1" fill="#4B692F" />
<rect x="6" y="1" width="3" height="1" fill="#4B692F" />
<rect x="8" y="2" width="2" height="4" fill="#4B692F" />
<rect x="10" y="3" width="3" height="3" fill="#4B692F" />
<rect x="5" y="4" width="3" height="1" fill="#4B692F" />
<rect x="13" y="4" width="2" height="3" fill="#4B692F" />
<rect x="4" y="5" width="1" height="1" fill="#4B692F" />
<rect x="5" y="5" width="2" height="1" fill="#316029" />
<rect x="7" y="5" width="1" height="2" fill="#4B692F" />
<rect x="15" y="5" width="3" height="1" fill="#4B692F" />
<rect x="3" y="6" width="1" height="2" fill="#4B692F" />
<rect x="4" y="6" width="2" height="1" fill="#316029" />
<rect x="6" y="6" width="1" height="2" fill="#4B692F" />
<rect x="9" y="6" width="2" height="4" fill="#4B692F" />
<rect x="15" y="6" width="1" height="2" fill="#316029" />
<rect x="16" y="6" width="2" height="1" fill="#4B692F" />
<rect x="4" y="7" width="1" height="1" fill="#316029" />
<rect x="5" y="7" width="1" height="1" fill="#4B692F" />
<rect x="14" y="7" width="1" height="2" fill="#4B692F" />
<rect x="16" y="7" width="1" height="1" fill="#316029" />
<rect x="17" y="7" width="2" height="1" fill="#4B692F" />
<rect x="2" y="8" width="1" height="2" fill="#4B692F" />
<rect x="3" y="8" width="1" height="1" fill="#316029" />
<rect x="4" y="8" width="1" height="2" fill="#4B692F" />
<rect x="15" y="8" width="2" height="1" fill="#4B692F" />
<rect x="17" y="8" width="1" height="1" fill="#316029" />
<rect x="18" y="8" width="1" height="3" fill="#4B692F" />
<rect x="3" y="9" width="1" height="2" fill="#4B692F" />
<rect x="16" y="9" width="2" height="1" fill="#4B692F" />
<rect x="9" y="10" width="1" height="5" fill="#4B692F" />
<rect x="10" y="10" width="1" height="6" fill="#316029" />
<rect x="17" y="10" width="1" height="1" fill="#4B692F" />
<rect x="5" y="14" width="4" height="1" fill="#222034" />
<rect x="11" y="14" width="1" height="1" fill="#222034" />
<rect x="12" y="14" width="1" height="1" fill="#000000" />
<rect x="13" y="14" width="2" height="1" fill="#222034" />
<rect x="1" y="15" width="2" height="4" fill="#222034" />
<rect x="3" y="15" width="1" height="1" fill="#000000" />
<rect x="4" y="15" width="4" height="1" fill="#222034" />
<rect x="8" y="15" width="1" height="1" fill="#000000" />
<rect x="9" y="15" width="1" height="1" fill="#316029" />
<rect x="11" y="15" width="1" height="1" fill="#000000" />
<rect x="12" y="15" width="1" height="2" fill="#222034" />
<rect x="13" y="15" width="2" height="1" fill="#000000" />
<rect x="15" y="15" width="2" height="2" fill="#222034" />
<rect x="17" y="15" width="1" height="2" fill="#000000" />
<rect x="18" y="15" width="1" height="4" fill="#222034" />
<rect x="0" y="16" width="1" height="1" fill="#222034" />
<rect x="3" y="16" width="1" height="3" fill="#222034" />
<rect x="4" y="16" width="4" height="1" fill="#000000" />
<rect x="8" y="16" width="2" height="1" fill="#222034" />
<rect x="10" y="16" width="1" height="1" fill="#000000" />
<rect x="11" y="16" width="1" height="1" fill="#222034" />
<rect x="13" y="16" width="1" height="3" fill="#222034" />
<rect x="14" y="16" width="1" height="1" fill="#000000" />
<rect x="19" y="16" width="1" height="1" fill="#222034" />
<rect x="4" y="17" width="4" height="2" fill="#222034" />
<rect x="8" y="17" width="1" height="2" fill="#000000" />
<rect x="9" y="17" width="2" height="2" fill="#222034" />
<rect x="11" y="17" width="2" height="1" fill="#000000" />
<rect x="14" y="17" width="1" height="3" fill="#222034" />
<rect x="15" y="17" width="2" height="1" fill="#000000" />
<rect x="17" y="17" width="1" height="2" fill="#222034" />
<rect x="11" y="18" width="1" height="2" fill="#222034" />
<rect x="12" y="18" width="1" height="1" fill="#000000" />
<rect x="15" y="18" width="2" height="1" fill="#222034" />
<rect x="5" y="19" width="4" height="1" fill="#222034" />
<rect x="9" y="19" width="1" height="1" fill="#000000" />
<rect x="10" y="19" width="1" height="1" fill="#222034" />
<rect x="12" y="19" width="1" height="1" fill="#222034" />
<rect x="13" y="19" width="1" height="1" fill="#000000" />
</svg>